<?xml version="1.0" encoding="UTF-8" standalone="no"?>
<!-- Generator: Adobe Illustrator 13.0.1, SVG Export Plug-In . SVG Version: 6.00 Build 14948)  -->

<svg
   xmlns:dc="http://purl.org/dc/elements/1.1/"
   xmlns:cc="http://creativecommons.org/ns#"
   xmlns:rdf="http://www.w3.org/1999/02/22-rdf-syntax-ns#"
   xmlns:svg="http://www.w3.org/2000/svg"
   xmlns="http://www.w3.org/2000/svg"
   xmlns:sodipodi="http://sodipodi.sourceforge.net/DTD/sodipodi-0.dtd"
   xmlns:inkscape="http://www.inkscape.org/namespaces/inkscape"
   version="1.1"
   id="Vrstva_1"
   x="0px"
   y="0px"
   width="595.275px"
   height="841.89px"
   viewBox="0 0 595.275 841.89"
   enable-background="new 0 0 595.275 841.89"
   xml:space="preserve"
   inkscape:version="0.91 r13725"
   sodipodi:docname="SKAUT_tvary_2_obrys.svg"><metadata
     id="metadata3394"><rdf:RDF><cc:Work
         rdf:about=""><dc:format>image/svg+xml</dc:format><dc:type
           rdf:resource="http://purl.org/dc/dcmitype/StillImage" /></cc:Work></rdf:RDF></metadata><defs
     id="defs3392" /><sodipodi:namedview
     pagecolor="#ffffff"
     bordercolor="#666666"
     borderopacity="1"
     objecttolerance="10"
     gridtolerance="10"
     guidetolerance="10"
     inkscape:pageopacity="0"
     inkscape:pageshadow="2"
     inkscape:window-width="3200"
     inkscape:window-height="1674"
     id="namedview3390"
     showgrid="false"
     inkscape:zoom="1.6961836"
     inkscape:cx="88.933685"
     inkscape:cy="420.94501"
     inkscape:window-x="0"
     inkscape:window-y="60"
     inkscape:window-maximized="1"
     inkscape:current-layer="Vrstva_1" /><title
     id="title3386">SKAUT_tvary_2_obrys</title><path
     fill="#6B96CA"
     d="M451.986,731.736H138.11c-50.576,0-89.687-32.301-104.761-86.486C19.323,593.218-5.82,340.628,1.338,221.433  c3.667-58.899,30.381-85.613,95.274-95.565c67.105-10.244,337.505-20.662,399.431-13.153l2.969,0.349  c57.443,6.926,92.131,11.116,95.507,88.348c3.492,79.211-5.82,387.673-23.28,432.546c-1.63,4.191-3.201,8.557-4.714,12.746  C551.625,688.494,535.91,731.736,451.986,731.736z M421.78,111.609c-104.761,0-273.834,7.915-324.934,15.714  c-64.079,9.778-90.444,36.201-94.053,94.168C-4.656,340.57,20.719,593.218,34.92,644.9c14.725,53.486,53.254,85.381,103.132,85.381  h313.934c82.878,0,98.417-42.777,113.433-84.1c1.514-4.191,3.085-8.555,4.715-12.746c17.46-44.697,26.423-352.753,22.872-431.906  c-3.317-76.01-35.561-79.735-94.168-87.01l-2.969-0.349C471.231,112.073,446.503,111.219,421.78,111.609z"
     id="path3388" /><path
     style="fill:#6b96ca;stroke:none;stroke-width:1px;stroke-linecap:butt;stroke-linejoin:miter;stroke-opacity:1;fill-opacity:1"
     d="M 128.55204,729.62239 C 111.02539,728.02244 95.248526,722.51738 80.98869,713.0259 73.195742,707.83884 60.519661,695.4072 54.956458,687.49562 41.558447,668.44195 35.047343,650.21832 29.25407,615.55838 16.942967,541.90362 5.4010062,411.87873 2.3284561,312.23036 1.5788214,287.91834 1.9391587,235.81602 2.9502538,222.32264 5.3788346,189.91245 12.919362,170.37588 28.845484,155.23131 c 17.196251,-16.35236 42.857943,-25.28195 85.851926,-29.87418 66.27703,-7.07913 214.38505,-13.5536 310.40272,-13.56911 45.15499,-0.007 75.3609,2.13271 104.94147,7.43481 16.80334,3.01187 30.73843,8.42432 38.89549,15.10718 14.33849,11.74714 21.37836,30.81191 23.67522,64.11549 0.9101,13.1962 0.9078,90.475 -0.006,127.63949 -3.613,147.29329 -11.28641,261.23733 -20.09111,298.33683 -1.16269,4.8991 -9.73568,28.8646 -14.39484,40.24028 -16.65524,40.66498 -39.35273,58.22977 -82.96019,64.19999 -6.7291,0.92125 -20.79554,1.01074 -174.45917,1.10991 -91.92697,0.0593 -169.395,-0.098 -172.15118,-0.34961 l 0.002,0 z"
     id="path3396"
     inkscape:connector-curvature="0" /></svg>